<?xml version="1.0" encoding="UTF-8"?>
<svg id="Layer_2" data-name="Layer 2" xmlns="http://www.w3.org/2000/svg" viewBox="0 0 97.65 90.83">
  <defs>
    <style>
      .cls-1 {
        fill: #231f20;
      }
    </style>
  </defs>
  <g id="Layer_1-2" data-name="Layer 1">
    <path class="cls-1" d="m97.65,68.13l-22.71,22.71-15.9-15.9,6.81-6.81,9.08,9.08,15.9-15.9,6.81,6.81Zm-47.69,9.08c0-6.81,2.27-12.72,6.36-17.71l-15.44-9.54v-27.25h6.81v23.62l14.08,8.63c4.54-3.18,9.54-5,15.44-5,4.54,0,9.08,1.36,12.72,3.18.45-2.73.91-5,.91-7.72C90.83,20.44,70.4,0,45.42,0S0,20.44,0,45.42s20.44,45.42,45.42,45.42c2.72,0,5.45-.45,7.72-.91-1.82-3.63-3.18-8.18-3.18-12.72Z"/>
  </g>
</svg>