<?xml version="1.0" encoding="UTF-8"?>
<svg id="Layer_2" data-name="Layer 2" xmlns="http://www.w3.org/2000/svg" viewBox="0 0 354.33 354.33">
  <defs>
    <style>
      .cls-1 {
        fill: #fff;
      }

      .cls-2 {
        fill: #282354;
      }

      .cls-3 {
        fill: #8a181a;
      }

      .cls-4 {
        fill: #8b181b;
      }
    </style>
  </defs>
  <g id="Layer_4" data-name="Layer 4">
    <g>
      <circle class="cls-1" cx="177.17" cy="177.17" r="177.17"/>
      <g>
        <path class="cls-3" d="m105.96,271.93l6.68-17.25-15.57,9.87s0,0,0,0c2.84,2.6,5.8,5.06,8.88,7.38Z"/>
        <path class="cls-4" d="m177.17,0C79.32,0,0,79.32,0,177.17s79.32,177.17,177.17,177.17,177.17-79.32,177.17-177.17S275.01,0,177.17,0Zm0,349.02c-94.91,0-171.85-76.94-171.85-171.85S82.25,5.31,177.17,5.31s171.85,76.94,171.85,171.85-76.94,171.85-171.85,171.85Z"/>
        <path class="cls-2" d="m162.87,314.31h16.56c1.28,0,2.32,1.04,2.32,2.32v7.15c0,1.28-1.04,2.32-2.32,2.32h-16.56c-1.28,0-2.32-1.04-2.32-2.32v-7.15c0-1.28,1.04-2.32,2.32-2.32Z"/>
        <path class="cls-2" d="m142.37,310.86l-17.71-5.63-.98,2.71,18.1,6.4c1.07.38,1.49-.16,1.66-.57,0,0,.31-1.09.35-1.27.03-.13.28-1.09-1.41-1.64Z"/>
        <path class="cls-2" d="m177.17,10.44C85.08,10.44,10.44,85.08,10.44,177.17s74.65,166.73,166.73,166.73,166.73-74.65,166.73-166.73S269.25,10.44,177.17,10.44Zm141.34,96.2l9.21,23.13c2.3,5.78-.51,12.4-6.27,14.76l-16.46,6.73-3.03-7.41,8.49-3.47-9.01-22.4,6.49-2.61,8.99,22.36,1.49-.61c1.71-.7,2.55-2.67,1.87-4.39l-9.21-23.13c-.67-1.69-2.58-2.55-4.29-1.94l-16.28,7.14-3.21-7.33,16.56-7.26c5.79-2.21,12.36.67,14.65,6.43Zm5.61,64.84l-6.64,4.6-4.6-6.64,6.64-4.6,4.6,6.64Zm-24.11,6.89h0c-.22,23.13-6.84,44.74-18.16,63.13,0,0,0,0,0,0-.51.83-1.04,1.66-1.57,2.48,0,0-.01.02-.02.02-.53.81-1.06,1.62-1.61,2.42-.01.02-.02.03-.04.05-.54.79-1.09,1.57-1.65,2.35-.02.03-.04.05-.06.08-.55.77-1.11,1.53-1.68,2.28-.03.03-.05.07-.08.1-.56.74-1.13,1.48-1.71,2.21-.03.04-.07.09-.1.13-.57.72-1.15,1.43-1.74,2.14-.04.05-.09.11-.14.16-.58.69-1.17,1.38-1.76,2.06-.05.06-.11.12-.16.18-.59.67-1.18,1.34-1.79,1.99-.07.07-.13.14-.2.22-.59.64-1.19,1.28-1.8,1.92-.08.08-.16.16-.23.24-.6.62-1.2,1.24-1.82,1.84-.09.09-.18.18-.27.27-.6.6-1.21,1.19-1.83,1.77-.1.1-.21.19-.31.29-.61.57-1.22,1.14-1.83,1.69-.12.11-.24.21-.36.32-.61.55-1.22,1.09-1.84,1.62-.13.11-.26.22-.39.33-.61.52-1.23,1.04-1.85,1.55-.14.12-.29.23-.43.35-.61.5-1.23.99-1.85,1.48-.16.12-.32.24-.48.36-.61.48-1.23.95-1.86,1.41-.17.13-.35.25-.52.38-.61.45-1.23.9-1.85,1.34-.19.13-.38.26-.57.4-.61.43-1.23.85-1.85,1.27-.21.14-.42.27-.62.41-.61.4-1.22.81-1.83,1.2-.23.14-.45.28-.68.43-.6.38-1.21.76-1.82,1.13-.24.15-.49.29-.73.43-.6.36-1.2.72-1.81,1.06-.26.15-.52.29-.78.44-.6.34-1.19.67-1.8,1-.28.15-.56.3-.84.44-.59.31-1.18.63-1.78.93-.29.15-.59.29-.88.44-.59.29-1.18.59-1.77.88-.31.15-.62.29-.94.44-.58.27-1.17.55-1.75.81-.33.15-.66.29-.99.43-.58.25-1.15.51-1.74.75-.34.14-.69.28-1.04.42-.57.24-1.15.47-1.72.7-.37.14-.74.28-1.1.42-.56.21-1.13.43-1.69.64-.38.14-.76.27-1.15.4-.56.2-1.12.4-1.68.59-.39.13-.79.26-1.19.39-.56.18-1.11.37-1.67.54-.41.13-.83.25-1.24.37-.55.16-1.1.33-1.65.49-.43.12-.87.23-1.3.35-.54.15-1.08.3-1.62.44-.45.12-.9.22-1.36.33-.53.13-1.06.26-1.59.39-.47.11-.94.2-1.41.31-.52.11-1.04.23-1.56.34-.48.1-.97.19-1.46.28-.52.1-1.03.2-1.55.29-.5.09-1,.17-1.5.25-.51.08-1.02.17-1.53.25-.52.08-1.04.15-1.57.22-.5.07-.99.14-1.49.21-.53.07-1.05.12-1.58.18-.5.06-1,.12-1.5.17-.55.06-1.11.1-1.67.15-.48.04-.95.09-1.43.13-.62.05-1.24.08-1.85.12-.42.03-.84.06-1.27.08-.65.03-1.31.05-1.96.07-.39.01-.79.03-1.18.04-1.05.03-2.1.04-3.16.04s-2.07-.01-3.1-.04c-.35,0-.71-.03-1.06-.04-.68-.02-1.35-.04-2.02-.08-.43-.02-.85-.05-1.28-.08-.59-.04-1.19-.07-1.78-.11-.46-.03-.92-.08-1.38-.12-.55-.05-1.11-.09-1.66-.15-.48-.05-.95-.1-1.43-.16-.53-.06-1.06-.12-1.59-.18-.49-.06-.98-.13-1.47-.2-.51-.07-1.01-.14-1.52-.21-.51-.08-1.01-.16-1.51-.24-.48-.08-.96-.16-1.45-.24-.52-.09-1.03-.19-1.55-.28-.46-.09-.93-.17-1.39-.27-.53-.11-1.05-.22-1.58-.33-.44-.09-.88-.19-1.33-.29-.54-.12-1.07-.25-1.61-.38-.42-.1-.84-.2-1.26-.31-.55-.14-1.09-.28-1.64-.42-.4-.11-.8-.21-1.2-.32-.56-.16-1.12-.31-1.68-.48-.38-.11-.75-.22-1.12-.33-.58-.17-1.15-.35-1.72-.53-.35-.11-.69-.22-1.04-.34-.59-.19-1.19-.39-1.77-.6-.32-.11-.63-.22-.95-.33-.61-.22-1.23-.44-1.84-.67-.28-.1-.56-.21-.84-.32-.64-.24-1.28-.49-1.92-.75-.23-.09-.46-.19-.69-.28-.68-.28-1.35-.56-2.02-.84-.17-.07-.35-.15-.52-.23-.72-.31-1.44-.63-2.16-.96-.1-.04-.19-.09-.29-.13-12.02-5.54-22.98-12.95-32.53-21.88,0,0,0,0,0,0,0,0,0,0,0,0-.69-.64-1.36-1.29-2.04-1.95l-.03-.03c-.66-.65-1.31-1.3-1.96-1.96-.02-.02-.05-.05-.07-.07-.63-.65-1.26-1.3-1.87-1.96-.04-.04-.08-.08-.12-.13-.6-.65-1.19-1.3-1.78-1.96-.06-.06-.11-.12-.17-.19-.57-.64-1.13-1.29-1.69-1.94-.07-.08-.14-.17-.21-.25-.54-.64-1.07-1.28-1.6-1.92-.09-.11-.17-.21-.26-.32-.51-.63-1.01-1.26-1.5-1.9-.1-.13-.2-.27-.31-.4-.47-.62-.94-1.24-1.41-1.86-.12-.16-.24-.32-.35-.48-.44-.61-.88-1.21-1.31-1.83-.13-.19-.26-.38-.39-.57-.41-.59-.82-1.19-1.22-1.79-.15-.22-.29-.44-.43-.66-.38-.58-.76-1.16-1.13-1.74-.16-.25-.31-.5-.47-.75-.35-.56-.7-1.12-1.05-1.69-.17-.28-.33-.56-.5-.84-.32-.55-.65-1.09-.96-1.65-.18-.31-.34-.62-.52-.93-.3-.53-.6-1.07-.89-1.6-.18-.33-.35-.66-.52-.99-.28-.53-.56-1.05-.83-1.58-.16-.31-.31-.63-.47-.94-.75-1.51-1.48-3.03-2.17-4.57-.12-.27-.23-.54-.35-.8-.31-.71-.62-1.41-.92-2.13-.14-.34-.28-.68-.42-1.03-.26-.65-.52-1.3-.78-1.95-.14-.37-.29-.75-.43-1.12-.24-.63-.47-1.27-.7-1.9-.14-.39-.27-.77-.41-1.16-.22-.64-.44-1.28-.65-1.93-.13-.38-.25-.76-.37-1.15-.21-.67-.42-1.35-.62-2.03-.11-.36-.22-.72-.32-1.08-.22-.76-.43-1.52-.63-2.29-.07-.28-.15-.56-.23-.84-.54-2.1-1.03-4.23-1.47-6.37-.07-.33-.13-.66-.19-.99-.14-.74-.28-1.48-.41-2.22-.07-.41-.14-.82-.2-1.22-.11-.67-.22-1.35-.32-2.03-.06-.44-.12-.87-.18-1.31-.09-.66-.17-1.32-.25-1.98-.05-.45-.11-.9-.15-1.35-.07-.66-.14-1.32-.2-1.98-.04-.45-.08-.9-.12-1.35-.06-.68-.1-1.37-.15-2.05-.03-.43-.06-.86-.08-1.29-.04-.75-.07-1.51-.1-2.26-.01-.37-.03-.73-.04-1.1-.03-1.12-.05-2.25-.05-3.38,0-67.85,55.01-122.86,122.86-122.86,1.04,0,2.07.01,3.11.04.35,0,.7.03,1.05.04.68.02,1.37.04,2.05.08.41.02.82.05,1.23.08.61.04,1.23.07,1.84.12.44.03.88.08,1.32.11.58.05,1.15.1,1.73.15.46.05.91.1,1.37.15.55.06,1.11.12,1.66.19.46.06.92.12,1.38.19.54.07,1.08.15,1.62.23.47.07.93.15,1.39.22.53.09,1.06.17,1.59.26.47.08.94.17,1.4.26.52.1,1.04.19,1.55.3.47.09.94.19,1.4.29.51.11,1.02.22,1.52.33.47.11.94.22,1.41.33.5.12,1,.24,1.5.37.47.12.94.24,1.4.36.49.13.98.26,1.47.4.47.13.94.27,1.41.4.48.14.96.28,1.43.43.47.14.94.29,1.41.44.47.15.93.3,1.4.45.47.16.94.31,1.41.48.46.16.91.32,1.37.48.47.17.94.34,1.41.51.45.17.89.34,1.33.51.47.18.95.37,1.42.55.43.17.86.35,1.29.53.48.2.96.4,1.43.6.41.18.83.36,1.24.54.48.21.97.43,1.45.65.4.18.79.37,1.19.55.49.23.98.46,1.46.69.38.18.75.37,1.13.56.5.25,1,.5,1.49.75.35.18.7.37,1.05.55.51.27,1.03.54,1.54.82.31.17.61.34.92.51.54.3,1.09.6,1.62.91.24.14.48.28.72.42.6.35,1.2.7,1.79,1.07.08.05.17.1.25.16,3.89,2.39,7.64,4.99,11.24,7.78.07.06.14.11.21.16.63.49,1.25,1,1.88,1.5.12.1.25.2.37.3.59.49,1.18.98,1.76,1.48.14.12.29.24.43.37.57.49,1.13.98,1.69,1.48.15.14.31.27.46.41.55.49,1.09,1,1.63,1.5.16.15.32.29.47.44.53.5,1.06,1.02,1.59,1.53.16.15.31.3.47.46.52.52,1.04,1.04,1.56,1.57.15.15.3.31.45.46.51.53,1.02,1.07,1.53,1.61.14.15.29.31.43.46.51.55,1.01,1.1,1.5,1.66.13.15.27.3.4.45.5.57,1,1.14,1.49,1.72.12.14.24.29.36.43.5.59.99,1.19,1.47,1.79.11.13.22.27.32.4.49.61.98,1.23,1.46,1.86.09.12.19.24.28.36.49.64.98,1.29,1.46,1.94.08.1.15.21.23.31.49.67.98,1.35,1.45,2.03.06.08.11.16.17.24.49.71.98,1.43,1.46,2.15.03.05.06.09.09.14.5.76,1,1.52,1.48,2.29,0,0,0,0,0,0,10.12,16.02,16.64,34.54,18.42,54.43,0,0,0,0,0,0,.09.99.17,1.99.23,2.99h0c.17,2.68.27,5.37.27,8.09,0,.4-.01.8-.02,1.21h0Zm-19.58-88.77c.54.55,1.26.85,2.03.85h0c.77,0,1.49-.3,2.03-.85l5.68-5.79c1.07-1.1,1.09-2.83.04-3.94l-21.51-22.81,5.82-5.49,21.51,22.81c4.01,4.25,3.95,10.86-.15,15.03l-5.68,5.79c-2.05,2.09-4.8,3.25-7.73,3.25h0c-2.93,0-5.68-1.15-7.73-3.24l-22.46-22.84,13.96-12.56,5.35,5.95-7.74,6.97,16.6,16.88Zm-57.07-63.43l8.64,3.77,13.63,27.99,7.8-17.07,7.28,3.33-12.07,26.42-7.74-4.12-13.96-28.67-8.09,18.13-7.3-3.26,11.83-26.51Zm-65.24,5.42c.2-6.19,5.38-11.14,11.59-11.02l24.89.46c6.22.11,11.24,5.27,11.18,11.49l-.16,17.78-8-.07.08-9.17-24.14-.36.1-7,24.1.36v-1.61c.03-1.85-1.46-3.39-3.31-3.42l-24.89-.46c-1.82-.04-3.35,1.4-3.45,3.2l.29,17.77-8,.13-.29-17.99v-.1Zm-53.28,7.79l6.96,16.36c.72,1.71,2.71,2.51,4.42,1.81l23-9.53c1.7-.71,2.53-2.67,1.85-4.39l-6.88-17.27,7.43-2.96,6.88,17.27c2.29,5.75-.5,12.37-6.22,14.74l-23,9.53c-1.41.59-2.88.86-4.33.86-4.44,0-8.68-2.61-10.51-6.93l-6.96-16.36,7.36-3.13Zm-27.25,17.8c1.85-1.65,4.23-2.44,6.7-2.25,2.47.19,4.69,1.35,6.27,3.27l1.45,1.77c4.06,4.06.61,8.89-2.6,12.6l-.4.4-1.39,1.2,13.56-.15-8.11,8.11-25.05.33,16.79-15.76c1.21-1.14.79-2.07.38-2.57,0,0-1.2-1.16-1.4-1.33-.15-.13-1.23-1.11-3.08.74l-20.73,20.03,14.58,16.14-5.94,5.36-19.98-22.12,28.95-25.77Zm-51.94,76.33l8.77-23.3c2.19-5.82,8.73-8.82,14.58-6.68l16.7,6.11-2.75,7.51-7.79-2.85-8.92,23.94-6.56-2.44,8.9-23.91-2.33-.85c-1.74-.64-3.69.26-4.34,1.99l-8.77,23.3c-.65,1.73.22,3.68,1.93,4.35l17.3,6.79-2.92,7.45-17.3-6.79c-5.77-2.26-8.68-8.82-6.5-14.62Zm16.15,35.94l-4.6,6.64-6.64-4.6,4.6-6.64,6.64,4.6Zm-7.52,10.94l7.55,5.23-5.23,7.55-7.55-5.23,5.23-7.55Zm1.85,18.05l10.05,6.19-6.19,10.05-10.05-6.19,6.19-10.05Zm.84,26.43l4.82-7.82,7.82,4.82-4.82,7.82-7.82-4.82Zm7.99,14.46l4.24-6.87,6.87,4.24-4.24,6.87-6.87-4.24Zm26.63,49.88l-14.54-15.67c-1.33-1.43-2.02-3.3-1.95-5.25.07-1.95.9-3.76,2.34-5.09l5.24-4.87c1.43-1.33,3.3-2.03,5.25-1.95,1.95.07,3.76.9,5.09,2.33l14.54,15.67-3.67,3.4-14.54-15.67c-.42-.45-.99-.72-1.61-.74-.64-.03-1.21.2-1.66.62l-5.24,4.87c-.45.42-.72.99-.74,1.61-.02.62.2,1.21.62,1.66l14.54,15.67-3.67,3.4Zm39.72,12.25l-6.68,9.85-4.35-2.64,3.45-5.08-13.07-8.03,2.65-3.86,13.05,8.02.61-.89c.7-1.03.45-2.37-.55-2.98l-13.44-8.33c-.98-.61-2.35-.31-3.07.66l-6.43,9.99-4.42-2.52,6.55-10.16c2.41-3.38,7.08-4.45,10.43-2.38l13.44,8.33c3.36,2.08,4.19,6.58,1.85,10.03Zm37.37,13.75l-.6,1.43c-1.14,3.74-5.12,3.14-8.35,2.34l-.37-.12-17.4-6.16-2.33,6.44-5.08-1.95,6.88-19.04,23.75,8.85c1.57.61,2.8,1.81,3.47,3.38.67,1.56.68,3.28.03,4.83Zm38.07,8.59c0,4.04-3.28,7.32-7.32,7.32h-16.56c-4.04,0-7.32-3.28-7.32-7.32v-7.15c0-4.04,3.28-7.32,7.32-7.32h16.56c4.04,0,7.32,3.28,7.32,7.32v7.15Zm10.38,7.63l-4.6-21.81,25.38-6.35,1.46,5.82-19.78,4.95.28,1.31,19.18-4.11,1.26,5.87-19.2,4.12.61,2.9,20.27-5.01,1.44,5.82-26.3,6.49Zm36.61-11.23l-8.98-18.87,5.42-2.58,8.98,18.87-5.42,2.58Zm34.63-19.51l-17.34-2.19,13.11-9.26c.95-.67.74-1.35.51-1.74,0,0-.72-.91-.84-1.05-.09-.1-.74-.89-2.19.21l-16.25,11.83,8.51,12.55-4.62,3.13-11.67-17.2,22.48-15c1.44-.96,3.16-1.28,4.84-.91,1.69.37,3.11,1.39,4.01,2.86l.83,1.36c2.41,3.2-.44,6.2-3.01,8.45l-.32.24-1.07.7,9.38,1.2-6.38,4.82Zm32.03-31.83l-4.53-4.22-11.19,11.86-3.44-3.24,11.17-11.84-.8-.74c-.92-.85-2.36-.81-3.22.1l-11.58,12.19c-.85.89-.83,2.3.02,3.18l8.99,7.96-3.58,4.04-9.14-8.1c-2.99-2.92-3.09-7.77-.2-10.8l11.58-12.19c2.89-3.05,7.75-3.2,10.83-.33l8.78,8.19-3.68,3.95Zm2.44-25.28l-4.24-6.87,6.87-4.24,4.24,6.87-6.87,4.24Zm7.04-13.88l-4.82-7.82,7.82-4.82,4.82,7.82-7.82,4.82Zm4.81-15.01l-6.19-10.05,10.05-6.19,6.19,10.05-10.05,6.19Zm3.39-21.5l-5.23-7.55,7.55-5.23,5.23,7.55-7.55,5.23Z"/>
        <path class="cls-3" d="m177.17,73.36c-57.33,0-103.81,46.48-103.81,103.81,0,5.96.51,11.79,1.47,17.47,2.86-11.66,10.21-36.8,24.69-59.02,3.3-5.06,26.55-39.07,67.48-41.52,38.92-2.33,64.92,25.69,71.52,33.45,4.22,4.97,17.38,20.96,21.3,44.33,7.1-.97,14.08-1.7,20.89-2.17-3.82-53.85-48.72-96.35-103.54-96.35Z"/>
        <path class="cls-3" d="m260.72,191.22c-1.55,20.74-11.75,37.88-16.63,44.81-1.77-10.14-5.23-23.44-10.42-38.32-6.63,2.41-13.69,5.09-21.12,8.07,2.32,19.54,2.42,42.73-1.71,69.61,39.11-13.4,67.67-49.51,69.97-92.59-5.42,1.43-12.12,3.33-19.94,5.75-.04.89-.08,1.78-.15,2.68Z"/>
        <path class="cls-3" d="m162.99,103.29l-39.7,72.97c8.99,1.13,16.82,6.56,21.12,14.28,13.22-24.51,29.82-53.23,39.84-62.98,0,0,15.37,18.11,24.07,54.4,5.89-1.45,11.81-2.82,17.73-4.08-1.08-2.57-2.18-5.16-3.35-7.77-14.35-32.13-34.9-64.78-59.7-66.81Z"/>
        <path class="cls-3" d="m144.01,204.62c0-13.51-10.96-24.47-24.47-24.47s-24.47,10.96-24.47,24.47c0,6.5,2.54,12.4,6.67,16.78,11.72-4.5,26.16-9.8,42.22-15.21.03-.52.06-1.04.06-1.57Zm-27.3-7.96c-6.82,2.44-13.4,1.45-14.71-2.2s3.16-8.59,9.98-11.03c6.82-2.44,13.4-1.45,14.71,2.2s-3.16,8.59-9.98,11.03Z"/>
        <path class="cls-3" d="m139.56,218.68c-4.43,6.3-11.74,10.41-20.02,10.41-1.26,0-2.5-.1-3.71-.28-17.42,7.56-29.19,12.95-35.84,16.06l13.35,16.12c111.13-69.66,202.33-86.88,202.33-86.88-51.61,5.28-90.12,17.56-116.17,28.1-15.01,6.08-28.29,11.57-39.94,16.47Z"/>
        <path class="cls-3" d="m139.56,218.68c-8.85,3.72-16.75,7.1-23.73,10.13,1.21.18,2.45.28,3.71.28,8.28,0,15.6-4.12,20.02-10.41Z"/>
        <path class="cls-2" d="m179.5,202.21c26.05-10.54,64.56-22.83,116.17-28.1-46.57.36-105.76,16.62-151.72,32.09-.29,4.63-1.87,8.91-4.39,12.48,11.65-4.9,24.93-10.39,39.94-16.47Z"/>
        <path class="cls-2" d="m79.17,243.89l.82.98c6.64-3.11,18.41-8.5,35.84-16.06-5.52-.84-10.43-3.53-14.09-7.41-14.73,5.65-25.15,10.02-29.1,11.7,1.99,3.72,4.18,7.32,6.54,10.78,0,0,0,0,0,0Z"/>
        <path class="cls-3" d="m115.83,228.81c6.99-3.03,14.89-6.41,23.73-10.13,2.52-3.58,4.1-7.85,4.39-12.48-16.05,5.4-30.5,10.71-42.22,15.21,3.66,3.88,8.57,6.57,14.09,7.41Z"/>
        <g>
          <path class="cls-1" d="m177.17,5.31C82.25,5.31,5.31,82.25,5.31,177.17s76.94,171.85,171.85,171.85,171.85-76.94,171.85-171.85S272.08,5.31,177.17,5.31ZM10.44,177.17C10.44,85.08,85.08,10.44,177.17,10.44s166.73,74.65,166.73,166.73-74.65,166.73-166.73,166.73S10.44,269.25,10.44,177.17Z"/>
          <path class="cls-1" d="m300.01,178.37c0-.4.02-.8.02-1.21,0-2.72-.1-5.42-.27-8.09h0c-.07-1-.14-2-.23-2.99,0,0,0,0,0,0-1.78-19.89-8.29-38.41-18.42-54.43,0,0,0,0,0,0-.48-.77-.98-1.53-1.48-2.29-.03-.05-.06-.09-.09-.14-.48-.72-.97-1.44-1.46-2.15-.06-.08-.11-.16-.17-.24-.48-.68-.96-1.36-1.45-2.03-.08-.1-.15-.21-.23-.31-.48-.65-.96-1.3-1.46-1.94-.09-.12-.19-.24-.28-.36-.48-.62-.97-1.24-1.46-1.86-.11-.13-.22-.27-.32-.4-.49-.6-.98-1.19-1.47-1.79-.12-.14-.24-.29-.36-.43-.49-.58-.99-1.15-1.49-1.72-.13-.15-.27-.3-.4-.45-.5-.56-1-1.11-1.5-1.66-.14-.16-.29-.31-.43-.46-.5-.54-1.01-1.08-1.53-1.61-.15-.15-.3-.31-.45-.46-.51-.53-1.03-1.05-1.56-1.57-.15-.15-.31-.3-.47-.46-.53-.51-1.05-1.03-1.59-1.53-.16-.15-.32-.29-.47-.44-.54-.5-1.08-1.01-1.63-1.5-.15-.14-.31-.27-.46-.41-.56-.5-1.12-.99-1.69-1.48-.14-.12-.29-.24-.43-.37-.58-.5-1.17-.99-1.76-1.48-.12-.1-.24-.2-.37-.3-.62-.51-1.24-1.01-1.88-1.5-.07-.06-.14-.11-.21-.16-1.8-1.4-3.63-2.75-5.5-4.04-1.87-1.3-3.78-2.54-5.73-3.74-.08-.05-.17-.1-.25-.16-.59-.36-1.19-.71-1.79-1.07-.24-.14-.48-.28-.72-.42-.54-.31-1.08-.61-1.62-.91-.31-.17-.61-.35-.92-.51-.51-.28-1.02-.55-1.54-.82-.35-.18-.69-.37-1.05-.55-.49-.25-.99-.5-1.49-.75-.37-.19-.75-.38-1.13-.56-.49-.24-.97-.46-1.46-.69-.4-.19-.79-.37-1.19-.55-.48-.22-.96-.43-1.45-.65-.41-.18-.82-.36-1.24-.54-.48-.2-.95-.4-1.43-.6-.43-.18-.86-.35-1.29-.53-.47-.19-.94-.37-1.42-.55-.44-.17-.89-.34-1.33-.51-.47-.17-.94-.35-1.41-.51-.45-.16-.91-.32-1.37-.48-.47-.16-.94-.32-1.41-.48-.47-.15-.93-.31-1.4-.45-.47-.15-.94-.3-1.41-.44-.48-.14-.95-.29-1.43-.43-.47-.14-.94-.27-1.41-.4-.49-.14-.98-.27-1.47-.4-.47-.12-.93-.25-1.4-.36-.5-.13-1-.25-1.5-.37-.47-.11-.94-.22-1.41-.33-.51-.11-1.02-.22-1.52-.33-.47-.1-.94-.2-1.4-.29-.52-.1-1.03-.2-1.55-.3-.47-.09-.93-.18-1.4-.26-.53-.09-1.06-.18-1.59-.26-.46-.07-.93-.15-1.39-.22-.54-.08-1.08-.15-1.62-.23-.46-.06-.92-.13-1.38-.19-.55-.07-1.11-.13-1.66-.19-.45-.05-.91-.1-1.37-.15-.57-.06-1.15-.1-1.73-.15-.44-.04-.88-.08-1.32-.11-.61-.05-1.22-.08-1.84-.12-.41-.02-.82-.05-1.23-.08-.68-.03-1.36-.05-2.05-.08-.35-.01-.7-.03-1.05-.04-1.03-.03-2.07-.04-3.11-.04-67.85,0-122.86,55.01-122.86,122.86,0,1.13.02,2.26.05,3.38,0,.37.03.73.04,1.1.03.76.06,1.51.1,2.26.02.43.05.86.08,1.29.04.69.09,1.37.15,2.05.04.45.08.9.12,1.35.06.66.13,1.32.2,1.98.05.45.1.9.15,1.35.08.66.16,1.32.25,1.98.06.44.12.88.18,1.31.1.68.21,1.35.32,2.03.07.41.13.82.2,1.22.13.74.27,1.48.41,2.22.06.33.12.66.19.99.43,2.15.92,4.27,1.47,6.37.07.28.15.56.23.84.2.77.41,1.53.63,2.29.1.36.21.72.32,1.08.2.68.41,1.35.62,2.03.12.38.25.77.37,1.15.21.65.43,1.29.65,1.93.13.39.27.77.41,1.16.23.64.46,1.27.7,1.9.14.37.28.75.43,1.12.25.65.51,1.3.78,1.95.14.34.28.69.42,1.03.3.71.61,1.42.92,2.13.12.27.23.54.35.8.44.97.88,1.93,1.34,2.89.27.56.55,1.12.83,1.67.16.31.31.63.47.94.27.53.55,1.06.83,1.58.18.33.35.66.52.99.29.54.59,1.07.89,1.6.17.31.34.62.52.93.32.55.64,1.1.96,1.65.17.28.33.56.5.84.34.57.69,1.13,1.05,1.69.16.25.31.5.47.75.37.58.75,1.16,1.13,1.74.15.22.29.44.43.66.4.6.81,1.19,1.22,1.79.13.19.26.38.39.57.43.61.87,1.22,1.31,1.83.12.16.23.32.35.48.46.63.93,1.25,1.41,1.86.1.13.2.27.31.4.49.64,1,1.27,1.5,1.9.09.11.17.22.26.32.53.65,1.06,1.29,1.6,1.92.07.08.14.17.21.25.56.65,1.12,1.3,1.69,1.94.05.06.11.12.17.19.59.66,1.18,1.31,1.78,1.96.04.04.08.08.12.13.62.66,1.24,1.32,1.87,1.96.02.02.05.05.07.07.65.66,1.3,1.32,1.96,1.96l.03.03c.67.66,1.35,1.31,2.04,1.95h0s0,0,0,0c9.55,8.92,20.51,16.34,32.53,21.88.1.04.19.09.29.13.72.33,1.44.65,2.16.96.17.08.35.15.52.23.67.29,1.35.57,2.02.84.23.09.46.19.69.28.64.25,1.28.5,1.92.75.28.11.56.21.84.32.61.23,1.22.45,1.84.67.31.11.63.22.95.33.59.2,1.18.4,1.77.6.35.11.69.23,1.04.34.57.18,1.15.36,1.72.53.37.11.75.22,1.12.33.56.16,1.12.32,1.68.48.4.11.8.22,1.2.32.54.14,1.09.29,1.64.42.42.11.84.21,1.26.31.54.13,1.07.25,1.61.38.44.1.88.19,1.33.29.52.11,1.05.22,1.58.33.46.09.93.18,1.39.27.51.1,1.03.19,1.55.28.48.08.96.16,1.45.24.5.08,1.01.16,1.51.24.5.08,1.01.14,1.52.21.49.07.98.14,1.47.2.53.07,1.06.12,1.59.18.48.05.95.11,1.43.16.55.05,1.11.1,1.66.15.46.04.92.08,1.38.12.59.04,1.19.08,1.78.11.43.03.85.06,1.28.08.67.03,1.35.05,2.02.08.35.01.71.03,1.06.04,1.03.03,2.06.04,3.1.04s2.11-.01,3.16-.04c.39-.01.79-.03,1.18-.04.66-.02,1.31-.04,1.96-.07.42-.02.84-.05,1.27-.08.62-.04,1.24-.07,1.85-.12.48-.04.95-.08,1.43-.13.56-.05,1.11-.09,1.67-.15.5-.05,1-.11,1.5-.17.53-.06,1.06-.11,1.58-.18.5-.06.99-.14,1.49-.21.52-.07,1.05-.14,1.57-.22.51-.08,1.02-.17,1.53-.25.5-.08,1-.16,1.5-.25.52-.09,1.03-.2,1.55-.29.49-.09.97-.18,1.46-.28.52-.11,1.04-.23,1.56-.34.47-.1.94-.2,1.41-.31.53-.12,1.06-.26,1.59-.39.45-.11.91-.22,1.36-.33.54-.14,1.08-.29,1.62-.44.43-.12.87-.23,1.3-.35.55-.16,1.1-.32,1.65-.49.41-.12.83-.24,1.24-.37.56-.17,1.11-.36,1.67-.54.4-.13.79-.25,1.19-.39.56-.19,1.12-.39,1.68-.59.38-.14.77-.27,1.15-.4.57-.21,1.13-.42,1.69-.64.37-.14.74-.28,1.1-.42.58-.23,1.15-.46,1.72-.7.35-.14.69-.28,1.04-.42.58-.25,1.16-.5,1.74-.75.33-.15.66-.29.99-.43.59-.26,1.17-.54,1.75-.81.31-.15.63-.29.94-.44.59-.29,1.18-.58,1.77-.88.29-.15.59-.29.88-.44.6-.3,1.19-.62,1.78-.93.28-.15.56-.29.84-.44.6-.33,1.2-.66,1.8-1,.26-.15.52-.29.78-.44.61-.35,1.21-.71,1.81-1.06.24-.14.49-.28.73-.43.61-.37,1.22-.75,1.82-1.13.23-.14.46-.28.68-.43.62-.39,1.23-.8,1.83-1.2.21-.14.42-.27.62-.41.62-.42,1.23-.84,1.85-1.27.19-.13.38-.26.57-.4.62-.44,1.24-.89,1.85-1.34.17-.13.35-.25.52-.38.62-.46,1.24-.94,1.86-1.41.16-.12.32-.24.48-.36.62-.49,1.24-.98,1.85-1.48.14-.12.29-.23.43-.35.62-.51,1.24-1.03,1.85-1.55.13-.11.26-.22.39-.33.62-.53,1.23-1.07,1.84-1.62.12-.11.24-.21.36-.32.62-.56,1.23-1.12,1.83-1.69.1-.1.21-.19.31-.29.62-.58,1.22-1.17,1.83-1.77.09-.09.18-.18.27-.27.61-.61,1.22-1.22,1.82-1.84.08-.08.16-.16.23-.24.61-.63,1.21-1.27,1.8-1.92.07-.07.13-.14.2-.22.6-.66,1.2-1.32,1.79-1.99.05-.06.11-.12.16-.18.6-.68,1.18-1.37,1.76-2.06.05-.05.09-.11.14-.16.59-.71,1.17-1.42,1.74-2.14.03-.04.07-.09.1-.13.58-.73,1.15-1.47,1.71-2.21.03-.03.05-.07.08-.1.57-.75,1.13-1.51,1.68-2.28.02-.03.04-.05.06-.08.56-.78,1.11-1.56,1.65-2.35.01-.02.02-.03.04-.05.55-.8,1.08-1.6,1.61-2.42,0,0,.01-.02.02-.02.53-.82,1.05-1.65,1.57-2.48,0,0,0,0,0,0,11.33-18.39,17.94-39.99,18.16-63.13h0Zm-89.17,97.01c4.13-26.88,4.03-50.07,1.71-69.61,7.43-2.98,14.49-5.66,21.12-8.07,5.19,14.88,8.65,28.18,10.42,38.32,4.88-6.93,15.09-24.07,16.63-44.81.07-.9.11-1.79.15-2.68,7.82-2.43,14.52-4.32,19.94-5.75-2.3,43.08-30.86,79.19-69.97,92.59Zm-43.84-181.28c-40.93,2.45-64.18,36.46-67.48,41.52-14.48,22.22-21.83,47.35-24.69,59.02-.96-5.68-1.47-11.52-1.47-17.47,0-57.33,46.48-103.81,103.81-103.81s99.72,42.5,103.54,96.35c-6.81.47-13.79,1.21-20.89,2.17-3.92-23.37-17.08-39.36-21.3-44.33-6.6-7.77-32.6-35.78-71.52-33.45Zm59.05,83.77c-5.91,1.27-11.83,2.63-17.73,4.08-8.7-36.29-24.07-54.4-24.07-54.4-10.02,9.75-26.61,38.48-39.84,62.98-4.31-7.72-12.13-13.15-21.12-14.28l39.7-72.97c24.8,2.04,45.35,34.68,59.7,66.81,1.17,2.61,2.28,5.2,3.35,7.77Zm-146.88,66.01c-2.36-3.47-4.55-7.07-6.54-10.78,3.95-1.68,14.37-6.05,29.1-11.7-4.13-4.38-6.67-10.28-6.67-16.78,0-13.51,10.96-24.47,24.47-24.47s24.47,10.96,24.47,24.47c0,.53-.02,1.05-.06,1.57,45.96-15.47,105.15-31.73,151.72-32.09,0,0-91.2,17.22-202.33,86.88l-13.35-16.12-.82-.98s0,0,0,0Zm26.78,28.05c-3.08-2.32-6.05-4.78-8.88-7.38,0,0,0,0,0,0l15.57-9.87-6.68,17.25Z"/>
          <ellipse class="cls-1" cx="114.34" cy="190.04" rx="13.11" ry="7.03" transform="translate(-57.31 49.59) rotate(-19.68)"/>
        </g>
        <path class="cls-1" d="m49.45,154.91l2.92-7.45-17.3-6.79c-1.72-.67-2.58-2.62-1.93-4.35l8.77-23.3c.65-1.73,2.6-2.63,4.34-1.99l2.33.85-8.9,23.91,6.56,2.44,8.92-23.94,7.79,2.85,2.75-7.51-16.7-6.11c-5.84-2.14-12.38.86-14.58,6.68l-8.77,23.3c-2.18,5.8.73,12.35,6.5,14.62l17.3,6.79Z"/>
        <path class="cls-1" d="m114.95,65.79c1.45,0,2.92-.28,4.33-.86l23-9.53c5.72-2.37,8.51-8.98,6.22-14.74l-6.88-17.27-7.43,2.96,6.88,17.27c.68,1.71-.15,3.68-1.85,4.39l-23,9.53c-1.71.71-3.69-.1-4.42-1.81l-6.96-16.36-7.36,3.13,6.96,16.36c1.84,4.32,6.07,6.93,10.51,6.93Z"/>
        <path class="cls-1" d="m74.56,99.7l-14.58-16.14,20.73-20.03c1.85-1.85,2.93-.86,3.08-.74.2.17,1.4,1.33,1.4,1.33.41.5.84,1.43-.38,2.57l-16.79,15.76,25.05-.33,8.11-8.11-13.56.15,1.39-1.2.4-.4c3.21-3.71,6.66-8.54,2.6-12.6l-1.45-1.77c-1.57-1.91-3.8-3.07-6.27-3.27-2.47-.19-4.85.61-6.7,2.25l-28.95,25.77,19.98,22.12,5.94-5.36Z"/>
        <path class="cls-1" d="m266.45,293.95l.32-.24c2.58-2.25,5.43-5.25,3.01-8.45l-.83-1.36c-.9-1.47-2.33-2.49-4.01-2.86-1.69-.37-3.41-.05-4.84.91l-22.48,15,11.67,17.2,4.62-3.13-8.51-12.55,16.25-11.83c1.46-1.1,2.11-.31,2.19-.21.12.14.84,1.05.84,1.05.24.39.44,1.07-.51,1.74l-13.11,9.26,17.34,2.19,6.38-4.82-9.38-1.2,1.07-.7Z"/>
        <path class="cls-1" d="m145.18,306.99l-23.75-8.85-6.88,19.04,5.08,1.95,2.33-6.44,17.4,6.16.37.12c3.23.8,7.21,1.4,8.35-2.34l.6-1.43c.65-1.55.63-3.27-.03-4.83-.67-1.56-1.9-2.76-3.47-3.38Zm-1.4,5.51c-.04.18-.35,1.27-.35,1.27-.17.41-.59.95-1.66.57l-18.1-6.4.98-2.71,17.71,5.63c1.69.55,1.44,1.51,1.41,1.64Z"/>
        <path class="cls-1" d="m166.41,49.54l-.29-17.77c.1-1.81,1.63-3.25,3.45-3.2l24.89.46c1.85.03,3.34,1.57,3.33,3.42v1.61s-24.11-.36-24.11-.36l-.1,7,24.14.36-.08,9.17,8,.07.16-17.78c.06-6.22-4.96-11.38-11.18-11.49l-24.89-.46c-6.22-.12-11.39,4.83-11.59,11.02v.1s.29,17.99.29,17.99l8-.13Z"/>
        <polygon class="cls-1" points="226.93 37.81 240.89 66.48 248.63 70.6 260.7 44.18 253.43 40.86 245.62 57.93 232 29.94 223.36 26.17 211.53 52.68 218.83 55.94 226.93 37.81"/>
        <path class="cls-1" d="m266.22,59.81l-13.96,12.56,22.46,22.84c2.05,2.09,4.8,3.24,7.73,3.24h0c2.93,0,5.68-1.16,7.73-3.25l5.68-5.79c4.1-4.18,4.16-10.78.15-15.03l-21.51-22.81-5.82,5.49,21.51,22.81c1.05,1.12,1.04,2.85-.04,3.94l-5.68,5.79c-.54.55-1.26.85-2.03.85h0c-.77,0-1.49-.3-2.03-.85l-16.6-16.88,7.74-6.97-5.35-5.95Z"/>
        <path class="cls-1" d="m290.5,114.8l16.28-7.14c1.7-.61,3.61.25,4.29,1.94l9.21,23.13c.69,1.72-.15,3.69-1.87,4.39l-1.49.61-8.99-22.36-6.49,2.61,9.01,22.4-8.49,3.47,3.03,7.41,16.46-6.73c5.76-2.35,8.58-8.97,6.27-14.76l-9.21-23.13c-2.29-5.75-8.86-8.64-14.65-6.43l-16.56,7.26,3.21,7.33Z"/>
        <path class="cls-1" d="m284.48,257.03l-11.58,12.19c-2.88,3.03-2.79,7.88.2,10.8l9.14,8.1,3.58-4.04-8.99-7.96c-.85-.87-.87-2.29-.02-3.18l11.58-12.19c.86-.91,2.31-.95,3.22-.1l.8.74-11.17,11.84,3.44,3.24,11.19-11.86,4.53,4.22,3.68-3.95-8.78-8.19c-3.08-2.87-7.93-2.72-10.83.33Z"/>
        <path class="cls-1" d="m109.46,291.42l-13.44-8.33c-3.34-2.07-8.02-1.01-10.43,2.38l-6.55,10.16,4.42,2.52,6.43-9.99c.72-.97,2.09-1.27,3.07-.66l13.44,8.33c1,.62,1.25,1.96.55,2.98l-.61.89-13.05-8.02-2.65,3.86,13.07,8.03-3.45,5.08,4.35,2.64,6.68-9.85c2.34-3.45,1.51-7.95-1.85-10.03Z"/>
        <rect class="cls-1" x="228.97" y="299.01" width="6" height="20.9" transform="translate(-110.43 129.63) rotate(-25.44)"/>
        <polygon class="cls-1" points="201.72 324.1 201.11 321.2 220.31 317.09 219.06 311.22 199.87 315.33 199.6 314.02 219.37 309.07 217.92 303.25 192.53 309.6 197.14 331.41 223.43 324.92 221.99 319.1 201.72 324.1"/>
        <path class="cls-1" d="m179.43,309.31h-16.56c-4.04,0-7.32,3.28-7.32,7.32v7.15c0,4.04,3.28,7.32,7.32,7.32h16.56c4.04,0,7.32-3.28,7.32-7.32v-7.15c0-4.04-3.28-7.32-7.32-7.32Zm2.32,14.47c0,1.28-1.04,2.32-2.32,2.32h-16.56c-1.28,0-2.32-1.04-2.32-2.32v-7.15c0-1.28,1.04-2.32,2.32-2.32h16.56c1.28,0,2.32,1.04,2.32,2.32v7.15Z"/>
        <path class="cls-1" d="m60.1,268.46c.02-.62.29-1.19.74-1.61l5.24-4.87c.45-.42,1.03-.65,1.66-.62.62.02,1.19.29,1.61.74l14.54,15.67,3.67-3.4-14.54-15.67c-1.33-1.43-3.14-2.26-5.09-2.33-1.95-.08-3.82.62-5.25,1.95l-5.24,4.87c-1.43,1.33-2.26,3.14-2.34,5.09-.07,1.95.62,3.82,1.95,5.25l14.54,15.67,3.67-3.4-14.54-15.67c-.42-.45-.64-1.04-.62-1.66Z"/>
        <rect class="cls-1" x="46.47" y="233.96" width="8.07" height="8.07" transform="translate(-178.61 156.14) rotate(-58.36)"/>
        <rect class="cls-1" x="38.69" y="218.76" width="9.19" height="9.19" transform="translate(-169.57 143.03) rotate(-58.36)"/>
        <rect class="cls-1" x="32.14" y="166.42" width="8.07" height="8.07" transform="translate(-124.54 103.12) rotate(-55.28)"/>
        <rect class="cls-1" x="30.84" y="182.18" width="9.19" height="9.19" transform="translate(-138.27 109.53) rotate(-55.28)"/>
        <rect class="cls-1" x="32.15" y="200.64" width="11.8" height="11.8" transform="translate(-157.75 130.58) rotate(-58.36)"/>
        <rect class="cls-1" x="300.13" y="233.96" width="8.07" height="8.07" transform="translate(-79.64 194.96) rotate(-31.64)"/>
        <rect class="cls-1" x="306.8" y="218.76" width="9.19" height="9.19" transform="translate(-70.88 196.57) rotate(-31.64)"/>
        <rect class="cls-1" x="314.46" y="166.42" width="8.07" height="8.07" transform="translate(-40.38 211.74) rotate(-34.72)"/>
        <rect class="cls-1" x="314.65" y="182.18" width="9.19" height="9.19" transform="translate(-49.54 215.07) rotate(-34.72)"/>
        <rect class="cls-1" x="310.72" y="200.64" width="11.8" height="11.8" transform="translate(-61.29 196.82) rotate(-31.64)"/>
      </g>
    </g>
  </g>
</svg>